{
	"asset":{
		"version":"2.0",
		"generator":"Created using the official Cinema 4D glTF Exporter 1.000x284978"
	},
	"scenes":[{
		"nodes":[0]
	}],
	"nodes":[{
		"name":"Subdivision Surface",
		"translation":[0.0,
		0.0,
		0.545445442199707],
		"rotation":[0.0,
		0.0,
		0.0,
		-1.0],
		"scale":[1.0,
		1.0,
		1.0],
		"mesh":0
	}],
	"meshes":[{
		"name":"Subdivision Surface",
		"primitives":[{
			"attributes":{
				"POSITION":1
			},
			"indices":0,
			"material":0
		}]
	}],
	"accessors":[{
		"bufferView":0,
		"type":"SCALAR",
		"componentType":5123,
		"count":15756,
		"byteOffset":0,
		"min":[0],
		"max":[2631]
	},
	{
		"bufferView":1,
		"type":"VEC3",
		"componentType":5126,
		"count":2632,
		"byteOffset":0,
		"min":[-7.5,
		-7.5,
		-0.9954746961593628],
		"max":[7.5,
		7.5,
		0.6227719783782959]
	}],
	"bufferViews":[{
		"buffer":0,
		"byteOffset":0,
		"byteLength":31512,
		"target":34963
	},
	{
		"buffer":0,
		"byteOffset":31512,
		"byteLength":31584,
		"target":34962
	}],
	"buffers":[{
		"uri":"data:application/octet-stream;base64,",
		"byteLength":63096
	}],
	"materials":[{
		"pbrMetallicRoughness":{
			"baseColorFactor":[1.0,
			1.0,
			1.0,
			1.0],
			"metallicFactor":1.0,
			"roughnessFactor":1.0
		},
		"emissiveFactor":[1.0,
		1.0,
		1.0],
		"alphaMode":"OPAQUE",
		"doubleSided":false,
		"name":"Mat"
	}]
}