{
	"asset":{
		"version":"2.0",
		"generator":"Created using the official Cinema 4D glTF Exporter 1.000x284978"
	},
	"scenes":[{
		"nodes":[0,
		1,
		2,
		3]
	}],
	"nodes":[{
		"name":"Camera",
		"translation":[0.0,
		0.0,
		50.39250564575195],
		"camera":0,
		"rotation":[0.0,
		0.0,
		0.0,
		-1.0],
		"scale":[1.0,
		1.0,
		1.0]
	},
	{
		"name":"Subdivision Surface.1",
		"mesh":0
	},
	{
		"name":"Extrude.1",
		"translation":[0.0,
		0.0,
		1.090890884399414],
		"rotation":[0.0,
		0.0,
		0.0,
		-1.0],
		"scale":[1.0,
		1.0,
		1.0],
		"mesh":1
	},
	{
		"name":"Subdivision Surface",
		"translation":[0.0,
		0.0,
		0.0],
		"rotation":[0.0,
		0.0,
		0.0,
		-1.0],
		"scale":[1.0,
		1.0,
		1.0],
		"mesh":2
	}],
	"meshes":[{
		"name":"Subdivision Surface.1",
		"primitives":[{
			"attributes":{
				"POSITION":1,
				"NORMAL":2,
				"TEXCOORD_0":3
			},
			"indices":0,
			"material":0
		}]
	},
	{
		"name":"Extrude.1",
		"primitives":[{
			"attributes":{
				"POSITION":5,
				"NORMAL":6,
				"TEXCOORD_0":7
			},
			"indices":4
		}]
	},
	{
		"name":"Subdivision Surface",
		"primitives":[{
			"attributes":{
				"POSITION":9
			},
			"indices":8,
			"material":0
		}]
	}],
	"cameras":[{
		"type":"perspective",
		"perspective":{
			"znear":0.009999999776482582,
			"zfar":10000000000.0,
			"aspectRatio":1.7777777910232545,
			"yfov":0.3995964825153351
		}
	}],
	"materials":[{
		"doubleSided":false,
		"pbrMetallicRoughness":{
			"baseColorFactor":[1.0,
			1.0,
			1.0,
			1.0],
			"metallicFactor":1.0,
			"roughnessFactor":1.0
		},
		"emissiveFactor":[1.0,
		1.0,
		1.0],
		"alphaMode":"OPAQUE",
		"name":"Mat"
	}],
	"bufferViews":[{
		"buffer":0,
		"byteOffset":0,
		"byteLength":21600,
		"target":34963
	},
	{
		"buffer":0,
		"byteOffset":21600,
		"byteLength":69504,
		"target":34962,
		"byteStride":32
	},
	{
		"buffer":1,
		"byteOffset":0,
		"byteLength":4956,
		"target":34963
	},
	{
		"buffer":1,
		"byteOffset":4956,
		"byteLength":26848,
		"target":34962,
		"byteStride":32
	},
	{
		"buffer":2,
		"byteOffset":0,
		"byteLength":26556,
		"target":34963
	},
	{
		"buffer":2,
		"byteOffset":26556,
		"byteLength":26604,
		"target":34962
	},
	{
		"buffer":3,
		"byteOffset":0,
		"byteLength":100
	}],
	"accessors":[{
		"bufferView":0,
		"count":10800,
		"type":"SCALAR",
		"componentType":5123,
		"byteOffset":0,
		"min":[0],
		"max":[2171]
	},
	{
		"bufferView":1,
		"count":2172,
		"type":"VEC3",
		"componentType":5126,
		"byteOffset":0,
		"min":[-7.5,
		-7.5,
		0.09541618824005127],
		"max":[7.5,
		7.5,
		1.0]
	},
	{
		"bufferView":1,
		"count":2172,
		"type":"VEC3",
		"componentType":5126,
		"byteOffset":12,
		"min":[-1.0,
		-1.0,
		-1.0],
		"max":[1.0,
		1.0,
		1.0]
	},
	{
		"bufferView":1,
		"count":2172,
		"type":"VEC2",
		"componentType":5126,
		"byteOffset":24,
		"min":[0.0,
		0.0],
		"max":[1.0,
		1.0]
	},
	{
		"bufferView":2,
		"count":2478,
		"type":"SCALAR",
		"componentType":5123,
		"byteOffset":0,
		"min":[0],
		"max":[838]
	},
	{
		"bufferView":3,
		"count":839,
		"type":"VEC3",
		"componentType":5126,
		"byteOffset":0,
		"min":[-5.324174880981445,
		-4.617650985717773,
		-0.8426735401153565],
		"max":[5.322842121124268,
		4.612843036651611,
		0.07732653617858887]
	},
	{
		"bufferView":3,
		"count":839,
		"type":"VEC3",
		"componentType":5126,
		"byteOffset":12,
		"min":[-1.0,
		-1.0,
		-1.0],
		"max":[0.9999998211860657,
		1.0,
		1.0]
	},
	{
		"bufferView":3,
		"count":839,
		"type":"VEC2",
		"componentType":5126,
		"byteOffset":24,
		"min":[0.0,
		0.0],
		"max":[1.0,
		1.0]
	},
	{
		"bufferView":4,
		"count":13278,
		"type":"SCALAR",
		"componentType":5123,
		"byteOffset":0,
		"min":[0],
		"max":[2216]
	},
	{
		"bufferView":5,
		"count":2217,
		"type":"VEC3",
		"componentType":5126,
		"byteOffset":0,
		"min":[-7.5,
		-7.5,
		-0.45002925395965578],
		"max":[7.5,
		7.5,
		0.6227719783782959]
	},
	{
		"bufferView":6,
		"count":5,
		"type":"SCALAR",
		"componentType":5126,
		"byteOffset":0,
		"min":[0.0],
		"max":[3.0]
	},
	{
		"bufferView":6,
		"count":5,
		"type":"VEC4",
		"componentType":5126,
		"byteOffset":20,
		"min":[-1.0,
		0.0,
		0.0,
		-1.0],
		"max":[0.0,
		0.0,
		0.0,
		1.0]
	}],
	"buffers":[{
		"uri":"data:application/octet-stream;base64,",
		"byteLength":91104
	},
	{
		"uri":"data:application/octet-stream;base64,",
		"byteLength":31804
	},
	{
		"uri":"data:application/octet-stream;base64,",
		"byteLength":53160
	},
	{
		"uri":"data:application/octet-stream;base64,",
		"byteLength":100
	}],
	"animations":[{
		"samplers":[{
			"input":10,
			"interpolation":"LINEAR",
			"output":11
		}],
		"channels":[{
			"sampler":0,
			"target":{
				"node":3,
				"path":"rotation"
			}
		}]
	}]
}