{
	"asset":{
		"version":"2.0",
		"generator":"Created using the official Cinema 4D glTF Exporter 1.000x284978"
	},
	"scenes":[{
		"nodes":[0]
	}],
	"nodes":[{
		"children":[1,
		2],
		"name":"Subdivision Surface.1",
		"translation":[0.0,
		0.0,
		0.0],
		"rotation":[0.0,
		0.0,
		0.0,
		-1.0],
		"scale":[1.0,
		1.0,
		1.0]
	},
	{
		"name":"Cube",
		"mesh":0
	},
	{
		"name":"Extrude.1",
		"translation":[0.0,
		0.0,
		1.090890884399414],
		"rotation":[0.0,
		0.0,
		0.0,
		-1.0],
		"scale":[1.0,
		1.0,
		1.0],
		"mesh":1
	}],
	"meshes":[{
		"name":"Cube",
		"primitives":[{
			"attributes":{
				"POSITION":1,
				"NORMAL":2,
				"TEXCOORD_0":3
			},
			"indices":0,
			"material":0
		}]
	},
	{
		"name":"Extrude.1",
		"primitives":[{
			"attributes":{
				"POSITION":5,
				"TEXCOORD_0":6
			},
			"indices":4,
			"material":0
		}]
	}],
	"materials":[{
		"pbrMetallicRoughness":{
			"baseColorFactor":[0.8,
			0.8,
			0.8,
			1.0],
			"metallicFactor":1.0,
			"roughnessFactor":1.0
		},
		"emissiveFactor":[0.0,
		0.0,
		0.0],
		"alphaMode":"OPAQUE",
		"doubleSided":true,
		"name":"Mat"
	}],
	"accessors":[{
		"bufferView":0,
		"type":"SCALAR",
		"componentType":5123,
		"count":10800,
		"byteOffset":0,
		"min":[0],
		"max":[2171]
	},
	{
		"bufferView":1,
		"type":"VEC3",
		"componentType":5126,
		"count":2172,
		"byteOffset":0,
		"min":[-7.5,
		-7.5,
		0.09541618824005127],
		"max":[7.5,
		7.5,
		1.0]
	},
	{
		"bufferView":1,
		"type":"VEC3",
		"componentType":5126,
		"count":2172,
		"byteOffset":12,
		"min":[-1.0,
		-1.0,
		-1.0],
		"max":[1.0,
		1.0,
		1.0]
	},
	{
		"bufferView":1,
		"type":"VEC2",
		"componentType":5126,
		"count":2172,
		"byteOffset":24,
		"min":[0.0,
		0.0],
		"max":[3.0,
		3.3333332538604738]
	},
	{
		"bufferView":2,
		"type":"SCALAR",
		"componentType":5123,
		"count":2478,
		"byteOffset":0,
		"min":[0],
		"max":[501]
	},
	{
		"bufferView":3,
		"type":"VEC3",
		"componentType":5126,
		"count":502,
		"byteOffset":0,
		"min":[-5.324174880981445,
		-4.617650985717773,
		-0.8426735401153565],
		"max":[5.322842121124268,
		4.612843036651611,
		0.07732653617858887]
	},
	{
		"bufferView":3,
		"type":"VEC2",
		"componentType":5126,
		"count":502,
		"byteOffset":12,
		"min":[0.0,
		0.0],
		"max":[3.0,
		2.5]
	}],
	"bufferViews":[{
		"buffer":0,
		"byteOffset":0,
		"byteLength":21600,
		"target":34963
	},
	{
		"buffer":0,
		"byteOffset":21600,
		"byteLength":69504,
		"target":34962,
		"byteStride":32
	},
	{
		"buffer":1,
		"byteOffset":0,
		"byteLength":4956,
		"target":34963
	},
	{
		"buffer":1,
		"byteOffset":4956,
		"byteLength":10040,
		"target":34962,
		"byteStride":20
	}],
	"buffers":[{
		"uri":"data:application/octet-stream;base64,",
		"byteLength":91104
	},
	{
		"uri":"data:application/octet-stream;base64,",
		"byteLength":14996
	}]
}